{"asset":{"version":"2.0","generator":"bb procedural animation"},"scene":0,"scenes":[{"nodes":[0,22]}],"nodes":[{"name":"Body1","translation":[0.00265952945,0.570722461,-0.204340607],"rotation":[0,0,0,1],"scale":[1,1,1],"children":[1,2,3]},{"name":"Body2","translation":[0,0.174921691,0],"rotation":[-0.0614909381,0,0,0.998107672],"scale":[1,0.999999881,0.999999881],"children":[4]},{"name":"UpperLeftLeg","translation":[-0.146318838,0.067735672,0],"rotation":[-0.706203401,0.0357275456,0.706203878,0.0357266441],"scale":[1.00002587,1.00000012,1],"children":[5]},{"name":"UpperRightLeg","translation":[0.146318823,0.0677357316,0],"rotation":[-0.706203461,-0.0357275493,0.706203818,-0.0357266404],"scale":[1.00002587,1.00000012,1],"children":[6]},{"name":"Body3","translation":[-4.65661287e-10,0.255313337,-7.4505806e-09],"rotation":[0.0614909418,1.18983692e-07,7.33029148e-09,0.998107672],"scale":[1,1,1],"children":[7,8,9,10,11,12,13]},{"name":"LowerLeftLeg","translation":[0,0.305716187,0],"rotation":[0.0195933338,-0.00137879234,0.0701661929,0.997341931],"scale":[1,0.999999821,1.00000012],"children":[14]},{"name":"LowerRightLeg","translation":[1.49011612e-08,0.305716276,0],"rotation":[-0.0195932426,0.00137852936,0.0701662675,0.997341931],"scale":[1,1,1.00000024],"children":[15]},{"name":"Head","translation":[-2.32830644e-10,0.35033226,-1.49011612e-08],"rotation":[-0.129726097,-2.23936929e-16,-3.09291153e-08,0.991549969],"scale":[1,1.00000012,1.00000012]},{"name":"LeftChest","translation":[-0.12565127,0.119568586,0.138349891],"rotation":[-0.703498602,-8.74205099e-08,-8.65900418e-08,0.710696697],"scale":[1,1.00000012,1.00000012]},{"name":"RightChest","translation":[0.125651196,0.119568586,0.13834995],"rotation":[-0.703498602,-8.74205099e-08,-8.65900418e-08,0.710696697],"scale":[1,1.00000012,1.00000012]},{"name":"LeftShoulder","translation":[2.91038305e-08,0.350332141,-1.49011612e-08],"rotation":[-7.22955704e-08,-7.7886753e-08,0.854521751,0.519415617],"scale":[1,0.99999994,0.999999881],"children":[16]},{"name":"RightShoulder","translation":[-3.05008143e-08,0.350332022,1.49011612e-08],"rotation":[-4.70457792e-07,-1.6011937e-07,0.854521751,-0.519415617],"scale":[1,0.99999994,0.999999881],"children":[17]},{"name":"LeftWing","translation":[-0.132254183,0.18469727,0.204605654],"rotation":[0.0676460639,-9.89304283e-08,0.0449048877,0.996698439],"scale":[0.99999994,1.00000024,1.00000012]},{"name":"RightWing","translation":[0.132254019,0.184697032,0.204605713],"rotation":[0.0679186955,0.00607950846,-0.0444914065,0.996679842],"scale":[1.00000012,1.00000012,1.00000012]},{"name":"LeftFoot","translation":[1.49011612e-08,0.283973336,-5.96046448e-08],"rotation":[0.0529502593,0.0459885783,0.753129601,-0.654123247],"scale":[0.99999994,0.999999762,0.999999881]},{"name":"RightFoot","translation":[2.98023224e-08,0.283973217,-1.49011612e-08],"rotation":[-0.052949626,-0.0459892862,0.753128052,-0.654124975],"scale":[0.99999994,0.99999994,0.999999702]},{"name":"UpperLeftArm","translation":[2.38418579e-07,0.244131565,2.98023224e-08],"rotation":[-1.03634896e-07,-4.36164783e-07,-0.199730381,0.979851007],"scale":[1,1,1.00000012],"children":[18]},{"name":"UpperRightArm","translation":[-3.57627869e-07,0.244131505,-1.49011612e-08],"rotation":[-1.65698282e-07,-3.68449129e-08,0.199730381,0.979851007],"scale":[1,1,1.00000012],"children":[19]},{"name":"LowerLeftArm","translation":[0,0.234700084,1.49011612e-08],"rotation":[0.0706894994,-0.00261606532,-0.0348017439,0.996887684],"scale":[0.999999881,0.99999994,1.00000012],"children":[20]},{"name":"LowerRightArm","translation":[2.38418579e-07,0.234699935,4.47034836e-08],"rotation":[-0.0348016545,0.996887684,0.0706895366,-0.00261499779],"scale":[1.00000012,1.00000036,1.00000024],"children":[21]},{"name":"LeftClaw","translation":[0,0.226412833,0],"rotation":[-0.070549868,0.00515336264,0.0705859959,0.994994462],"scale":[1,1.00000012,0.999999881]},{"name":"RightClaw","translation":[1.1920929e-07,0.226413131,5.96046448e-08],"rotation":[-0.0997981429,0.707211256,-2.5331783e-05,-0.699923337],"scale":[0.999999821,1,1.00000012]},{"name":"mesh","mesh":0,"skin":0}],"meshes":[{"primitives":[{"attributes":{"POSITION":0,"NORMAL":1,"TEXCOORD_0":2,"JOINTS_0":3,"WEIGHTS_0":4},"indices":5,"mode":4}]}],"skins":[{"inverseBindMatrices":6,"skeleton":0,"joints":[0,1,2,3,4,5,6,7,8,9,10,11,12,13,14,15,16,17,18,19,20,21]}],"animations":[{"name":"prance","samplers":[{"input":7,"output":8,"interpolation":"LINEAR"},{"input":7,"output":9,"interpolation":"LINEAR"},{"input":7,"output":10,"interpolation":"LINEAR"},{"input":7,"output":11,"interpolation":"LINEAR"},{"input":7,"output":12,"interpolation":"LINEAR"},{"input":7,"output":13,"interpolation":"LINEAR"},{"input":7,"output":14,"interpolation":"LINEAR"},{"input":7,"output":15,"interpolation":"LINEAR"},{"input":7,"output":16,"interpolation":"LINEAR"},{"input":7,"output":17,"interpolation":"LINEAR"},{"input":7,"output":18,"interpolation":"LINEAR"},{"input":7,"output":19,"interpolation":"LINEAR"},{"input":7,"output":20,"interpolation":"LINEAR"},{"input":7,"output":21,"interpolation":"LINEAR"},{"input":7,"output":22,"interpolation":"LINEAR"},{"input":7,"output":23,"interpolation":"LINEAR"},{"input":7,"output":24,"interpolation":"LINEAR"},{"input":7,"output":25,"interpolation":"LINEAR"},{"input":7,"output":26,"interpolation":"LINEAR"}],"channels":[{"sampler":0,"target":{"node":0,"path":"rotation"}},{"sampler":1,"target":{"node":0,"path":"translation"}},{"sampler":2,"target":{"node":1,"path":"rotation"}},{"sampler":3,"target":{"node":2,"path":"rotation"}},{"sampler":4,"target":{"node":3,"path":"rotation"}},{"sampler":5,"target":{"node":4,"path":"rotation"}},{"sampler":6,"target":{"node":5,"path":"rotation"}},{"sampler":7,"target":{"node":6,"path":"rotation"}},{"sampler":8,"target":{"node":7,"path":"rotation"}},{"sampler":9,"target":{"node":10,"path":"rotation"}},{"sampler":10,"target":{"node":11,"path":"rotation"}},{"sampler":11,"target":{"node":14,"path":"rotation"}},{"sampler":12,"target":{"node":15,"path":"rotation"}},{"sampler":13,"target":{"node":16,"path":"rotation"}},{"sampler":14,"target":{"node":17,"path":"rotation"}},{"sampler":15,"target":{"node":18,"path":"rotation"}},{"sampler":16,"target":{"node":19,"path":"rotation"}},{"sampler":17,"target":{"node":20,"path":"rotation"}},{"sampler":18,"target":{"node":21,"path":"rotation"}}]},{"name":"Attack","samplers":[{"input":27,"output":28,"interpolation":"LINEAR"},{"input":27,"output":29,"interpolation":"LINEAR"},{"input":27,"output":30,"interpolation":"LINEAR"},{"input":27,"output":31,"interpolation":"LINEAR"},{"input":27,"output":32,"interpolation":"LINEAR"},{"input":27,"output":33,"interpolation":"LINEAR"},{"input":27,"output":34,"interpolation":"LINEAR"},{"input":27,"output":35,"interpolation":"LINEAR"},{"input":27,"output":36,"interpolation":"LINEAR"}],"channels":[{"sampler":0,"target":{"node":1,"path":"rotation"}},{"sampler":1,"target":{"node":4,"path":"rotation"}},{"sampler":2,"target":{"node":7,"path":"rotation"}},{"sampler":3,"target":{"node":10,"path":"rotation"}},{"sampler":4,"target":{"node":11,"path":"rotation"}},{"sampler":5,"target":{"node":16,"path":"rotation"}},{"sampler":6,"target":{"node":17,"path":"rotation"}},{"sampler":7,"target":{"node":18,"path":"rotation"}},{"sampler":8,"target":{"node":19,"path":"rotation"}}]},{"name":"Idle","samplers":[{"input":37,"output":38,"interpolation":"LINEAR"},{"input":37,"output":39,"interpolation":"LINEAR"},{"input":37,"output":40,"interpolation":"LINEAR"},{"input":37,"output":41,"interpolation":"LINEAR"},{"input":37,"output":42,"interpolation":"LINEAR"},{"input":37,"output":43,"interpolation":"LINEAR"},{"input":37,"output":44,"interpolation":"LINEAR"},{"input":37,"output":45,"interpolation":"LINEAR"},{"input":37,"output":46,"interpolation":"LINEAR"},{"input":37,"output":47,"interpolation":"LINEAR"},{"input":37,"output":48,"interpolation":"LINEAR"}],"channels":[{"sampler":0,"target":{"node":0,"path":"translation"}},{"sampler":1,"target":{"node":2,"path":"rotation"}},{"sampler":2,"target":{"node":3,"path":"rotation"}},{"sampler":3,"target":{"node":5,"path":"rotation"}},{"sampler":4,"target":{"node":6,"path":"rotation"}},{"sampler":5,"target":{"node":14,"path":"rotation"}},{"sampler":6,"target":{"node":15,"path":"rotation"}},{"sampler":7,"target":{"node":16,"path":"rotation"}},{"sampler":8,"target":{"node":17,"path":"rotation"}},{"sampler":9,"target":{"node":18,"path":"rotation"}},{"sampler":10,"target":{"node":19,"path":"rotation"}}]}],"accessors":[{"bufferView":0,"componentType":5126,"count":11424,"type":"VEC3","min":[-0.888005376,-5.96046448e-08,-0.750555873],"max":[0.888005376,2.0180006,0.750555873]},{"bufferView":1,"componentType":5126,"count":11424,"type":"VEC3"},{"bufferView":2,"componentType":5126,"count":11424,"type":"VEC2"},{"bufferView":3,"componentType":5123,"count":11424,"type":"VEC4"},{"bufferView":4,"componentType":5126,"count":11424,"type":"VEC4"},{"bufferView":5,"componentType":5125,"count":11424,"type":"SCALAR"},{"bufferView":6,"componentType":5126,"count":22,"type":"MAT4"},{"bufferView":7,"componentType":5126,"count":60,"type":"SCALAR","min":[0],"max":[0.983333349]},{"bufferView":8,"componentType":5126,"count":60,"type":"VEC4"},{"bufferView":9,"componentType":5126,"count":60,"type":"VEC3"},{"bufferView":10,"componentType":5126,"count":60,"type":"VEC4"},{"bufferView":11,"componentType":5126,"count":60,"type":"VEC4"},{"bufferView":12,"componentType":5126,"count":60,"type":"VEC4"},{"bufferView":13,"componentType":5126,"count":60,"type":"VEC4"},{"bufferView":14,"componentType":5126,"count":60,"type":"VEC4"},{"bufferView":15,"componentType":5126,"count":60,"type":"VEC4"},{"bufferView":16,"componentType":5126,"count":60,"type":"VEC4"},{"bufferView":17,"componentType":5126,"count":60,"type":"VEC4"},{"bufferView":18,"componentType":5126,"count":60,"type":"VEC4"},{"bufferView":19,"componentType":5126,"count":60,"type":"VEC4"},{"bufferView":20,"componentType":5126,"count":60,"type":"VEC4"},{"bufferView":21,"componentType":5126,"count":60,"type":"VEC4"},{"bufferView":22,"componentType":5126,"count":60,"type":"VEC4"},{"bufferView":23,"componentType":5126,"count":60,"type":"VEC4"},{"bufferView":24,"componentType":5126,"count":60,"type":"VEC4"},{"bufferView":25,"componentType":5126,"count":60,"type":"VEC4"},{"bufferView":26,"componentType":5126,"count":60,"type":"VEC4"},{"bufferView":27,"componentType":5126,"count":60,"type":"SCALAR","min":[0],"max":[1]},{"bufferView":28,"componentType":5126,"count":60,"type":"VEC4"},{"bufferView":29,"componentType":5126,"count":60,"type":"VEC4"},{"bufferView":30,"componentType":5126,"count":60,"type":"VEC4"},{"bufferView":31,"componentType":5126,"count":60,"type":"VEC4"},{"bufferView":32,"componentType":5126,"count":60,"type":"VEC4"},{"bufferView":33,"componentType":5126,"count":60,"type":"VEC4"},{"bufferView":34,"componentType":5126,"count":60,"type":"VEC4"},{"bufferView":35,"componentType":5126,"count":60,"type":"VEC4"},{"bufferView":36,"componentType":5126,"count":60,"type":"VEC4"},{"bufferView":37,"componentType":5126,"count":60,"type":"SCALAR","min":[0],"max":[1]},{"bufferView":38,"componentType":5126,"count":60,"type":"VEC3"},{"bufferView":39,"componentType":5126,"count":60,"type":"VEC4"},{"bufferView":40,"componentType":5126,"count":60,"type":"VEC4"},{"bufferView":41,"componentType":5126,"count":60,"type":"VEC4"},{"bufferView":42,"componentType":5126,"count":60,"type":"VEC4"},{"bufferView":43,"componentType":5126,"count":60,"type":"VEC4"},{"bufferView":44,"componentType":5126,"count":60,"type":"VEC4"},{"bufferView":45,"componentType":5126,"count":60,"type":"VEC4"},{"bufferView":46,"componentType":5126,"count":60,"type":"VEC4"},{"bufferView":47,"componentType":5126,"count":60,"type":"VEC4"},{"bufferView":48,"componentType":5126,"count":60,"type":"VEC4"}],"bufferViews":[{"buffer":0,"byteOffset":0,"byteLength":137088,"target":34962},{"buffer":0,"byteOffset":137088,"byteLength":137088,"target":34962},{"buffer":0,"byteOffset":274176,"byteLength":91392,"target":34962},{"buffer":0,"byteOffset":365568,"byteLength":91392,"target":34962},{"buffer":0,"byteOffset":456960,"byteLength":182784,"target":34962},{"buffer":0,"byteOffset":639744,"byteLength":45696,"target":34963},{"buffer":0,"byteOffset":685440,"byteLength":1408},{"buffer":0,"byteOffset":686848,"byteLength":240},{"buffer":0,"byteOffset":687088,"byteLength":960},{"buffer":0,"byteOffset":688048,"byteLength":720},{"buffer":0,"byteOffset":688768,"byteLength":960},{"buffer":0,"byteOffset":689728,"byteLength":960},{"buffer":0,"byteOffset":690688,"byteLength":960},{"buffer":0,"byteOffset":691648,"byteLength":960},{"buffer":0,"byteOffset":692608,"byteLength":960},{"buffer":0,"byteOffset":693568,"byteLength":960},{"buffer":0,"byteOffset":694528,"byteLength":960},{"buffer":0,"byteOffset":695488,"byteLength":960},{"buffer":0,"byteOffset":696448,"byteLength":960},{"buffer":0,"byteOffset":697408,"byteLength":960},{"buffer":0,"byteOffset":698368,"byteLength":960},{"buffer":0,"byteOffset":699328,"byteLength":960},{"buffer":0,"byteOffset":700288,"byteLength":960},{"buffer":0,"byteOffset":701248,"byteLength":960},{"buffer":0,"byteOffset":702208,"byteLength":960},{"buffer":0,"byteOffset":703168,"byteLength":960},{"buffer":0,"byteOffset":704128,"byteLength":960},{"buffer":0,"byteOffset":705088,"byteLength":240},{"buffer":0,"byteOffset":705328,"byteLength":960},{"buffer":0,"byteOffset":706288,"byteLength":960},{"buffer":0,"byteOffset":707248,"byteLength":960},{"buffer":0,"byteOffset":708208,"byteLength":960},{"buffer":0,"byteOffset":709168,"byteLength":960},{"buffer":0,"byteOffset":710128,"byteLength":960},{"buffer":0,"byteOffset":711088,"byteLength":960},{"buffer":0,"byteOffset":712048,"byteLength":960},{"buffer":0,"byteOffset":713008,"byteLength":960},{"buffer":0,"byteOffset":713968,"byteLength":240},{"buffer":0,"byteOffset":714208,"byteLength":720},{"buffer":0,"byteOffset":714928,"byteLength":960},{"buffer":0,"byteOffset":715888,"byteLength":960},{"buffer":0,"byteOffset":716848,"byteLength":960},{"buffer":0,"byteOffset":717808,"byteLength":960},{"buffer":0,"byteOffset":718768,"byteLength":960},{"buffer":0,"byteOffset":719728,"byteLength":960},{"buffer":0,"byteOffset":720688,"byteLength":960},{"buffer":0,"byteOffset":721648,"byteLength":960},{"buffer":0,"byteOffset":722608,"byteLength":960},{"buffer":0,"byteOffset":723568,"byteLength":960}],"buffers":[{"uri":"data:application/octet-stream;base64,","byteLength":724528}]}