{"asset":{"version":"2.0","generator":"bb procedural animation"},"scene":0,"scenes":[{"nodes":[0,21]}],"nodes":[{"name":"Center of Mass","translation":[-0.00318926573,1.1939882,0.0766608417],"rotation":[-0.707106829,0,0,0.707106829],"scale":[1,1,1],"children":[1,2,3]},{"name":"Body1","translation":[0,0,-0.407424569],"rotation":[0.707106829,8.42936956e-08,8.42936956e-08,0.707106829],"scale":[1,1,1],"children":[4]},{"name":"UpperLeg.L","translation":[-0.17253074,-7.4505806e-09,-0.376226246],"rotation":[-0.46832031,-0.482108474,0.516147435,0.530885458],"scale":[1.00000012,1.00000012,1],"children":[5]},{"name":"UpperLeg.R","translation":[0.172530755,0,-0.376226246],"rotation":[-0.46832031,0.482108474,-0.516147435,0.530885458],"scale":[1.00000012,1.00000012,1],"children":[6]},{"name":"Body2","translation":[0,0.211856067,0],"rotation":[-0,7.10542736e-15,0,1],"scale":[1,1,1],"children":[7]},{"name":"LowerLeg.L","translation":[7.4505806e-09,0.37933743,2.98023224e-08],"rotation":[0.0169207733,0.000507241522,0.0300069712,0.999406338],"scale":[0.999999702,0.999999881,0.99999994],"children":[8]},{"name":"LowerLeg.R","translation":[3.7252903e-09,0.37933737,-1.49011612e-08],"rotation":[0.0169207733,-0.000507241522,-0.0300069712,0.999406338],"scale":[0.999999702,0.999999881,0.99999994],"children":[9]},{"name":"Body3","translation":[0,0.277666032,0],"rotation":[-0,-1.1920929e-07,0,1],"scale":[1,1,1],"children":[10,11,12,13,14]},{"name":"Foot.L","translation":[0,0.343826771,0],"rotation":[0.0466009118,0.0455974787,0.716638029,-0.69439131],"scale":[1.00000012,1.00000012,1.00000012]},{"name":"Foot.R","translation":[0,0.34382683,2.98023224e-08],"rotation":[-0.0466009118,0.0455974787,0.716638029,0.69439131],"scale":[1.00000012,1.00000012,1.00000012]},{"name":"Head","translation":[0,0.373586893,2.98023224e-08],"rotation":[-0.172397062,0,0,0.985027552],"scale":[1,1,1]},{"name":"Chest.L","translation":[-0.133870363,0.119446754,0.10393399],"rotation":[-0.707106829,0,0,0.707106829],"scale":[1,1,1]},{"name":"Chest.R","translation":[0.133870363,0.119446754,0.10393399],"rotation":[-0.707106829,0,0,0.707106829],"scale":[1,1,1]},{"name":"Shoulder.L","translation":[8.38190317e-09,0.373586893,0],"rotation":[0.0731450394,0.0484663695,0.799437642,0.594306529],"scale":[0.999999821,0.999999881,0.999999821],"children":[15]},{"name":"Shoulder.R","translation":[-1.02445483e-08,0.373586893,0],"rotation":[-0.0731450394,0.0484663695,0.799437642,-0.594306529],"scale":[0.999999821,0.999999881,0.999999821],"children":[16]},{"name":"UpperArm.L","translation":[3.57627869e-07,0.304852903,-7.4505806e-09],"rotation":[-0.0834795684,0.0270249285,-0.033123944,0.995592117],"scale":[1,1,0.999999881],"children":[17]},{"name":"UpperArm.R","translation":[-2.38418579e-07,0.304852903,-1.49011612e-08],"rotation":[-0.0834795684,-0.0270249285,0.033123944,0.995592117],"scale":[1,1,0.999999881],"children":[18]},{"name":"LowerArm.L","translation":[3.57627869e-07,0.282914817,1.49011612e-08],"rotation":[0.0499170125,-0.00523876771,-0.120734319,0.991415203],"scale":[1,1,1.00000012],"children":[19]},{"name":"LowerArm.R","translation":[0,0.282914817,0],"rotation":[0.0499170125,0.00523876771,0.120734319,0.991415203],"scale":[1,1,1.00000012],"children":[20]},{"name":"Hand.L","translation":[-4.76837158e-07,0.38661027,-7.4505806e-09],"rotation":[-0.050189428,-0.000417074247,0.00830008835,0.998705149],"scale":[0.99999994,1,1]},{"name":"Hand.R","translation":[3.57627869e-07,0.386610329,-7.4505806e-09],"rotation":[-0.050189428,0.000417074247,-0.00830008835,0.998705149],"scale":[0.99999994,1,1]},{"name":"mesh","mesh":0,"skin":0}],"meshes":[{"primitives":[{"attributes":{"POSITION":0,"NORMAL":1,"TEXCOORD_0":2,"JOINTS_0":3,"WEIGHTS_0":4},"indices":5,"mode":4}]}],"skins":[{"inverseBindMatrices":6,"skeleton":0,"joints":[0,1,2,3,4,5,6,7,8,9,10,11,12,13,14,15,16,17,18,19,20]}],"animations":[{"name":"March","samplers":[{"input":7,"output":8,"interpolation":"LINEAR"},{"input":7,"output":9,"interpolation":"LINEAR"},{"input":7,"output":10,"interpolation":"LINEAR"},{"input":7,"output":11,"interpolation":"LINEAR"},{"input":7,"output":12,"interpolation":"LINEAR"},{"input":7,"output":13,"interpolation":"LINEAR"},{"input":7,"output":14,"interpolation":"LINEAR"},{"input":7,"output":15,"interpolation":"LINEAR"},{"input":7,"output":16,"interpolation":"LINEAR"},{"input":7,"output":17,"interpolation":"LINEAR"},{"input":7,"output":18,"interpolation":"LINEAR"},{"input":7,"output":19,"interpolation":"LINEAR"},{"input":7,"output":20,"interpolation":"LINEAR"},{"input":7,"output":21,"interpolation":"LINEAR"},{"input":7,"output":22,"interpolation":"LINEAR"},{"input":7,"output":23,"interpolation":"LINEAR"},{"input":7,"output":24,"interpolation":"LINEAR"}],"channels":[{"sampler":0,"target":{"node":0,"path":"translation"}},{"sampler":1,"target":{"node":1,"path":"rotation"}},{"sampler":2,"target":{"node":2,"path":"rotation"}},{"sampler":3,"target":{"node":3,"path":"rotation"}},{"sampler":4,"target":{"node":4,"path":"rotation"}},{"sampler":5,"target":{"node":5,"path":"rotation"}},{"sampler":6,"target":{"node":6,"path":"rotation"}},{"sampler":7,"target":{"node":7,"path":"rotation"}},{"sampler":8,"target":{"node":8,"path":"rotation"}},{"sampler":9,"target":{"node":9,"path":"rotation"}},{"sampler":10,"target":{"node":10,"path":"rotation"}},{"sampler":11,"target":{"node":13,"path":"rotation"}},{"sampler":12,"target":{"node":14,"path":"rotation"}},{"sampler":13,"target":{"node":15,"path":"rotation"}},{"sampler":14,"target":{"node":16,"path":"rotation"}},{"sampler":15,"target":{"node":17,"path":"rotation"}},{"sampler":16,"target":{"node":18,"path":"rotation"}}]},{"name":"Forward Step","samplers":[{"input":25,"output":26,"interpolation":"LINEAR"},{"input":25,"output":27,"interpolation":"LINEAR"},{"input":25,"output":28,"interpolation":"LINEAR"},{"input":25,"output":29,"interpolation":"LINEAR"},{"input":25,"output":30,"interpolation":"LINEAR"},{"input":25,"output":31,"interpolation":"LINEAR"},{"input":25,"output":32,"interpolation":"LINEAR"},{"input":25,"output":33,"interpolation":"LINEAR"},{"input":25,"output":34,"interpolation":"LINEAR"},{"input":25,"output":35,"interpolation":"LINEAR"},{"input":25,"output":36,"interpolation":"LINEAR"},{"input":25,"output":37,"interpolation":"LINEAR"},{"input":25,"output":38,"interpolation":"LINEAR"},{"input":25,"output":39,"interpolation":"LINEAR"},{"input":25,"output":40,"interpolation":"LINEAR"},{"input":25,"output":41,"interpolation":"LINEAR"},{"input":25,"output":42,"interpolation":"LINEAR"},{"input":25,"output":43,"interpolation":"LINEAR"},{"input":25,"output":44,"interpolation":"LINEAR"}],"channels":[{"sampler":0,"target":{"node":0,"path":"translation"}},{"sampler":1,"target":{"node":1,"path":"rotation"}},{"sampler":2,"target":{"node":2,"path":"rotation"}},{"sampler":3,"target":{"node":3,"path":"rotation"}},{"sampler":4,"target":{"node":4,"path":"rotation"}},{"sampler":5,"target":{"node":5,"path":"rotation"}},{"sampler":6,"target":{"node":6,"path":"rotation"}},{"sampler":7,"target":{"node":7,"path":"rotation"}},{"sampler":8,"target":{"node":8,"path":"rotation"}},{"sampler":9,"target":{"node":9,"path":"rotation"}},{"sampler":10,"target":{"node":10,"path":"rotation"}},{"sampler":11,"target":{"node":13,"path":"rotation"}},{"sampler":12,"target":{"node":14,"path":"rotation"}},{"sampler":13,"target":{"node":15,"path":"rotation"}},{"sampler":14,"target":{"node":16,"path":"rotation"}},{"sampler":15,"target":{"node":17,"path":"rotation"}},{"sampler":16,"target":{"node":18,"path":"rotation"}},{"sampler":17,"target":{"node":19,"path":"rotation"}},{"sampler":18,"target":{"node":20,"path":"rotation"}}]},{"name":"right attack","samplers":[{"input":45,"output":46,"interpolation":"LINEAR"},{"input":45,"output":47,"interpolation":"LINEAR"},{"input":45,"output":48,"interpolation":"LINEAR"},{"input":45,"output":49,"interpolation":"LINEAR"},{"input":45,"output":50,"interpolation":"LINEAR"},{"input":45,"output":51,"interpolation":"LINEAR"},{"input":45,"output":52,"interpolation":"LINEAR"},{"input":45,"output":53,"interpolation":"LINEAR"},{"input":45,"output":54,"interpolation":"LINEAR"},{"input":45,"output":55,"interpolation":"LINEAR"},{"input":45,"output":56,"interpolation":"LINEAR"},{"input":45,"output":57,"interpolation":"LINEAR"},{"input":45,"output":58,"interpolation":"LINEAR"},{"input":45,"output":59,"interpolation":"LINEAR"},{"input":45,"output":60,"interpolation":"LINEAR"},{"input":45,"output":61,"interpolation":"LINEAR"},{"input":45,"output":62,"interpolation":"LINEAR"}],"channels":[{"sampler":0,"target":{"node":0,"path":"translation"}},{"sampler":1,"target":{"node":1,"path":"rotation"}},{"sampler":2,"target":{"node":2,"path":"rotation"}},{"sampler":3,"target":{"node":3,"path":"rotation"}},{"sampler":4,"target":{"node":4,"path":"rotation"}},{"sampler":5,"target":{"node":5,"path":"rotation"}},{"sampler":6,"target":{"node":6,"path":"rotation"}},{"sampler":7,"target":{"node":7,"path":"rotation"}},{"sampler":8,"target":{"node":8,"path":"rotation"}},{"sampler":9,"target":{"node":9,"path":"rotation"}},{"sampler":10,"target":{"node":10,"path":"rotation"}},{"sampler":11,"target":{"node":13,"path":"rotation"}},{"sampler":12,"target":{"node":14,"path":"rotation"}},{"sampler":13,"target":{"node":15,"path":"rotation"}},{"sampler":14,"target":{"node":16,"path":"rotation"}},{"sampler":15,"target":{"node":17,"path":"rotation"}},{"sampler":16,"target":{"node":18,"path":"rotation"}}]},{"name":"right attack mirror","samplers":[{"input":63,"output":64,"interpolation":"LINEAR"},{"input":63,"output":65,"interpolation":"LINEAR"},{"input":63,"output":66,"interpolation":"LINEAR"},{"input":63,"output":67,"interpolation":"LINEAR"},{"input":63,"output":68,"interpolation":"LINEAR"},{"input":63,"output":69,"interpolation":"LINEAR"},{"input":63,"output":70,"interpolation":"LINEAR"},{"input":63,"output":71,"interpolation":"LINEAR"},{"input":63,"output":72,"interpolation":"LINEAR"},{"input":63,"output":73,"interpolation":"LINEAR"},{"input":63,"output":74,"interpolation":"LINEAR"},{"input":63,"output":75,"interpolation":"LINEAR"},{"input":63,"output":76,"interpolation":"LINEAR"},{"input":63,"output":77,"interpolation":"LINEAR"},{"input":63,"output":78,"interpolation":"LINEAR"},{"input":63,"output":79,"interpolation":"LINEAR"},{"input":63,"output":80,"interpolation":"LINEAR"}],"channels":[{"sampler":0,"target":{"node":0,"path":"translation"}},{"sampler":1,"target":{"node":1,"path":"rotation"}},{"sampler":2,"target":{"node":2,"path":"rotation"}},{"sampler":3,"target":{"node":3,"path":"rotation"}},{"sampler":4,"target":{"node":4,"path":"rotation"}},{"sampler":5,"target":{"node":5,"path":"rotation"}},{"sampler":6,"target":{"node":6,"path":"rotation"}},{"sampler":7,"target":{"node":7,"path":"rotation"}},{"sampler":8,"target":{"node":8,"path":"rotation"}},{"sampler":9,"target":{"node":9,"path":"rotation"}},{"sampler":10,"target":{"node":10,"path":"rotation"}},{"sampler":11,"target":{"node":13,"path":"rotation"}},{"sampler":12,"target":{"node":14,"path":"rotation"}},{"sampler":13,"target":{"node":15,"path":"rotation"}},{"sampler":14,"target":{"node":16,"path":"rotation"}},{"sampler":15,"target":{"node":17,"path":"rotation"}},{"sampler":16,"target":{"node":18,"path":"rotation"}}]},{"name":"Idle","samplers":[{"input":81,"output":82,"interpolation":"LINEAR"},{"input":81,"output":83,"interpolation":"LINEAR"},{"input":81,"output":84,"interpolation":"LINEAR"},{"input":81,"output":85,"interpolation":"LINEAR"},{"input":81,"output":86,"interpolation":"LINEAR"},{"input":81,"output":87,"interpolation":"LINEAR"},{"input":81,"output":88,"interpolation":"LINEAR"},{"input":81,"output":89,"interpolation":"LINEAR"},{"input":81,"output":90,"interpolation":"LINEAR"},{"input":81,"output":91,"interpolation":"LINEAR"},{"input":81,"output":92,"interpolation":"LINEAR"},{"input":81,"output":93,"interpolation":"LINEAR"},{"input":81,"output":94,"interpolation":"LINEAR"},{"input":81,"output":95,"interpolation":"LINEAR"},{"input":81,"output":96,"interpolation":"LINEAR"}],"channels":[{"sampler":0,"target":{"node":0,"path":"translation"}},{"sampler":1,"target":{"node":1,"path":"rotation"}},{"sampler":2,"target":{"node":2,"path":"rotation"}},{"sampler":3,"target":{"node":3,"path":"rotation"}},{"sampler":4,"target":{"node":4,"path":"rotation"}},{"sampler":5,"target":{"node":5,"path":"rotation"}},{"sampler":6,"target":{"node":6,"path":"rotation"}},{"sampler":7,"target":{"node":7,"path":"rotation"}},{"sampler":8,"target":{"node":8,"path":"rotation"}},{"sampler":9,"target":{"node":9,"path":"rotation"}},{"sampler":10,"target":{"node":10,"path":"rotation"}},{"sampler":11,"target":{"node":15,"path":"rotation"}},{"sampler":12,"target":{"node":16,"path":"rotation"}},{"sampler":13,"target":{"node":17,"path":"rotation"}},{"sampler":14,"target":{"node":18,"path":"rotation"}}]}],"accessors":[{"bufferView":0,"componentType":5126,"count":1638,"type":"VEC3","min":[-1.20676398,1.1920929e-07,-0.302960396],"max":[1.20676398,2.08253193,0.302960396]},{"bufferView":1,"componentType":5126,"count":1638,"type":"VEC3"},{"bufferView":2,"componentType":5126,"count":1638,"type":"VEC2"},{"bufferView":3,"componentType":5123,"count":1638,"type":"VEC4"},{"bufferView":4,"componentType":5126,"count":1638,"type":"VEC4"},{"bufferView":5,"componentType":5125,"count":1638,"type":"SCALAR"},{"bufferView":6,"componentType":5126,"count":21,"type":"MAT4"},{"bufferView":7,"componentType":5126,"count":60,"type":"SCALAR","min":[0],"max":[0.983333349]},{"bufferView":8,"componentType":5126,"count":60,"type":"VEC3"},{"bufferView":9,"componentType":5126,"count":60,"type":"VEC4"},{"bufferView":10,"componentType":5126,"count":60,"type":"VEC4"},{"bufferView":11,"componentType":5126,"count":60,"type":"VEC4"},{"bufferView":12,"componentType":5126,"count":60,"type":"VEC4"},{"bufferView":13,"componentType":5126,"count":60,"type":"VEC4"},{"bufferView":14,"componentType":5126,"count":60,"type":"VEC4"},{"bufferView":15,"componentType":5126,"count":60,"type":"VEC4"},{"bufferView":16,"componentType":5126,"count":60,"type":"VEC4"},{"bufferView":17,"componentType":5126,"count":60,"type":"VEC4"},{"bufferView":18,"componentType":5126,"count":60,"type":"VEC4"},{"bufferView":19,"componentType":5126,"count":60,"type":"VEC4"},{"bufferView":20,"componentType":5126,"count":60,"type":"VEC4"},{"bufferView":21,"componentType":5126,"count":60,"type":"VEC4"},{"bufferView":22,"componentType":5126,"count":60,"type":"VEC4"},{"bufferView":23,"componentType":5126,"count":60,"type":"VEC4"},{"bufferView":24,"componentType":5126,"count":60,"type":"VEC4"},{"bufferView":25,"componentType":5126,"count":60,"type":"SCALAR","min":[0],"max":[0.983333349]},{"bufferView":26,"componentType":5126,"count":60,"type":"VEC3"},{"bufferView":27,"componentType":5126,"count":60,"type":"VEC4"},{"bufferView":28,"componentType":5126,"count":60,"type":"VEC4"},{"bufferView":29,"componentType":5126,"count":60,"type":"VEC4"},{"bufferView":30,"componentType":5126,"count":60,"type":"VEC4"},{"bufferView":31,"componentType":5126,"count":60,"type":"VEC4"},{"bufferView":32,"componentType":5126,"count":60,"type":"VEC4"},{"bufferView":33,"componentType":5126,"count":60,"type":"VEC4"},{"bufferView":34,"componentType":5126,"count":60,"type":"VEC4"},{"bufferView":35,"componentType":5126,"count":60,"type":"VEC4"},{"bufferView":36,"componentType":5126,"count":60,"type":"VEC4"},{"bufferView":37,"componentType":5126,"count":60,"type":"VEC4"},{"bufferView":38,"componentType":5126,"count":60,"type":"VEC4"},{"bufferView":39,"componentType":5126,"count":60,"type":"VEC4"},{"bufferView":40,"componentType":5126,"count":60,"type":"VEC4"},{"bufferView":41,"componentType":5126,"count":60,"type":"VEC4"},{"bufferView":42,"componentType":5126,"count":60,"type":"VEC4"},{"bufferView":43,"componentType":5126,"count":60,"type":"VEC4"},{"bufferView":44,"componentType":5126,"count":60,"type":"VEC4"},{"bufferView":45,"componentType":5126,"count":60,"type":"SCALAR","min":[0],"max":[0.49000001]},{"bufferView":46,"componentType":5126,"count":60,"type":"VEC3"},{"bufferView":47,"componentType":5126,"count":60,"type":"VEC4"},{"bufferView":48,"componentType":5126,"count":60,"type":"VEC4"},{"bufferView":49,"componentType":5126,"count":60,"type":"VEC4"},{"bufferView":50,"componentType":5126,"count":60,"type":"VEC4"},{"bufferView":51,"componentType":5126,"count":60,"type":"VEC4"},{"bufferView":52,"componentType":5126,"count":60,"type":"VEC4"},{"bufferView":53,"componentType":5126,"count":60,"type":"VEC4"},{"bufferView":54,"componentType":5126,"count":60,"type":"VEC4"},{"bufferView":55,"componentType":5126,"count":60,"type":"VEC4"},{"bufferView":56,"componentType":5126,"count":60,"type":"VEC4"},{"bufferView":57,"componentType":5126,"count":60,"type":"VEC4"},{"bufferView":58,"componentType":5126,"count":60,"type":"VEC4"},{"bufferView":59,"componentType":5126,"count":60,"type":"VEC4"},{"bufferView":60,"componentType":5126,"count":60,"type":"VEC4"},{"bufferView":61,"componentType":5126,"count":60,"type":"VEC4"},{"bufferView":62,"componentType":5126,"count":60,"type":"VEC4"},{"bufferView":63,"componentType":5126,"count":60,"type":"SCALAR","min":[0],"max":[0.49000001]},{"bufferView":64,"componentType":5126,"count":60,"type":"VEC3"},{"bufferView":65,"componentType":5126,"count":60,"type":"VEC4"},{"bufferView":66,"componentType":5126,"count":60,"type":"VEC4"},{"bufferView":67,"componentType":5126,"count":60,"type":"VEC4"},{"bufferView":68,"componentType":5126,"count":60,"type":"VEC4"},{"bufferView":69,"componentType":5126,"count":60,"type":"VEC4"},{"bufferView":70,"componentType":5126,"count":60,"type":"VEC4"},{"bufferView":71,"componentType":5126,"count":60,"type":"VEC4"},{"bufferView":72,"componentType":5126,"count":60,"type":"VEC4"},{"bufferView":73,"componentType":5126,"count":60,"type":"VEC4"},{"bufferView":74,"componentType":5126,"count":60,"type":"VEC4"},{"bufferView":75,"componentType":5126,"count":60,"type":"VEC4"},{"bufferView":76,"componentType":5126,"count":60,"type":"VEC4"},{"bufferView":77,"componentType":5126,"count":60,"type":"VEC4"},{"bufferView":78,"componentType":5126,"count":60,"type":"VEC4"},{"bufferView":79,"componentType":5126,"count":60,"type":"VEC4"},{"bufferView":80,"componentType":5126,"count":60,"type":"VEC4"},{"bufferView":81,"componentType":5126,"count":60,"type":"SCALAR","min":[0],"max":[5.1500001]},{"bufferView":82,"componentType":5126,"count":60,"type":"VEC3"},{"bufferView":83,"componentType":5126,"count":60,"type":"VEC4"},{"bufferView":84,"componentType":5126,"count":60,"type":"VEC4"},{"bufferView":85,"componentType":5126,"count":60,"type":"VEC4"},{"bufferView":86,"componentType":5126,"count":60,"type":"VEC4"},{"bufferView":87,"componentType":5126,"count":60,"type":"VEC4"},{"bufferView":88,"componentType":5126,"count":60,"type":"VEC4"},{"bufferView":89,"componentType":5126,"count":60,"type":"VEC4"},{"bufferView":90,"componentType":5126,"count":60,"type":"VEC4"},{"bufferView":91,"componentType":5126,"count":60,"type":"VEC4"},{"bufferView":92,"componentType":5126,"count":60,"type":"VEC4"},{"bufferView":93,"componentType":5126,"count":60,"type":"VEC4"},{"bufferView":94,"componentType":5126,"count":60,"type":"VEC4"},{"bufferView":95,"componentType":5126,"count":60,"type":"VEC4"},{"bufferView":96,"componentType":5126,"count":60,"type":"VEC4"}],"bufferViews":[{"buffer":0,"byteOffset":0,"byteLength":19656,"target":34962},{"buffer":0,"byteOffset":19656,"byteLength":19656,"target":34962},{"buffer":0,"byteOffset":39312,"byteLength":13104,"target":34962},{"buffer":0,"byteOffset":52416,"byteLength":13104,"target":34962},{"buffer":0,"byteOffset":65520,"byteLength":26208,"target":34962},{"buffer":0,"byteOffset":91728,"byteLength":6552,"target":34963},{"buffer":0,"byteOffset":98280,"byteLength":1344},{"buffer":0,"byteOffset":99624,"byteLength":240},{"buffer":0,"byteOffset":99864,"byteLength":720},{"buffer":0,"byteOffset":100584,"byteLength":960},{"buffer":0,"byteOffset":101544,"byteLength":960},{"buffer":0,"byteOffset":102504,"byteLength":960},{"buffer":0,"byteOffset":103464,"byteLength":960},{"buffer":0,"byteOffset":104424,"byteLength":960},{"buffer":0,"byteOffset":105384,"byteLength":960},{"buffer":0,"byteOffset":106344,"byteLength":960},{"buffer":0,"byteOffset":107304,"byteLength":960},{"buffer":0,"byteOffset":108264,"byteLength":960},{"buffer":0,"byteOffset":109224,"byteLength":960},{"buffer":0,"byteOffset":110184,"byteLength":960},{"buffer":0,"byteOffset":111144,"byteLength":960},{"buffer":0,"byteOffset":112104,"byteLength":960},{"buffer":0,"byteOffset":113064,"byteLength":960},{"buffer":0,"byteOffset":114024,"byteLength":960},{"buffer":0,"byteOffset":114984,"byteLength":960},{"buffer":0,"byteOffset":115944,"byteLength":240},{"buffer":0,"byteOffset":116184,"byteLength":720},{"buffer":0,"byteOffset":116904,"byteLength":960},{"buffer":0,"byteOffset":117864,"byteLength":960},{"buffer":0,"byteOffset":118824,"byteLength":960},{"buffer":0,"byteOffset":119784,"byteLength":960},{"buffer":0,"byteOffset":120744,"byteLength":960},{"buffer":0,"byteOffset":121704,"byteLength":960},{"buffer":0,"byteOffset":122664,"byteLength":960},{"buffer":0,"byteOffset":123624,"byteLength":960},{"buffer":0,"byteOffset":124584,"byteLength":960},{"buffer":0,"byteOffset":125544,"byteLength":960},{"buffer":0,"byteOffset":126504,"byteLength":960},{"buffer":0,"byteOffset":127464,"byteLength":960},{"buffer":0,"byteOffset":128424,"byteLength":960},{"buffer":0,"byteOffset":129384,"byteLength":960},{"buffer":0,"byteOffset":130344,"byteLength":960},{"buffer":0,"byteOffset":131304,"byteLength":960},{"buffer":0,"byteOffset":132264,"byteLength":960},{"buffer":0,"byteOffset":133224,"byteLength":960},{"buffer":0,"byteOffset":134184,"byteLength":240},{"buffer":0,"byteOffset":134424,"byteLength":720},{"buffer":0,"byteOffset":135144,"byteLength":960},{"buffer":0,"byteOffset":136104,"byteLength":960},{"buffer":0,"byteOffset":137064,"byteLength":960},{"buffer":0,"byteOffset":138024,"byteLength":960},{"buffer":0,"byteOffset":138984,"byteLength":960},{"buffer":0,"byteOffset":139944,"byteLength":960},{"buffer":0,"byteOffset":140904,"byteLength":960},{"buffer":0,"byteOffset":141864,"byteLength":960},{"buffer":0,"byteOffset":142824,"byteLength":960},{"buffer":0,"byteOffset":143784,"byteLength":960},{"buffer":0,"byteOffset":144744,"byteLength":960},{"buffer":0,"byteOffset":145704,"byteLength":960},{"buffer":0,"byteOffset":146664,"byteLength":960},{"buffer":0,"byteOffset":147624,"byteLength":960},{"buffer":0,"byteOffset":148584,"byteLength":960},{"buffer":0,"byteOffset":149544,"byteLength":960},{"buffer":0,"byteOffset":150504,"byteLength":240},{"buffer":0,"byteOffset":150744,"byteLength":720},{"buffer":0,"byteOffset":151464,"byteLength":960},{"buffer":0,"byteOffset":152424,"byteLength":960},{"buffer":0,"byteOffset":153384,"byteLength":960},{"buffer":0,"byteOffset":154344,"byteLength":960},{"buffer":0,"byteOffset":155304,"byteLength":960},{"buffer":0,"byteOffset":156264,"byteLength":960},{"buffer":0,"byteOffset":157224,"byteLength":960},{"buffer":0,"byteOffset":158184,"byteLength":960},{"buffer":0,"byteOffset":159144,"byteLength":960},{"buffer":0,"byteOffset":160104,"byteLength":960},{"buffer":0,"byteOffset":161064,"byteLength":960},{"buffer":0,"byteOffset":162024,"byteLength":960},{"buffer":0,"byteOffset":162984,"byteLength":960},{"buffer":0,"byteOffset":163944,"byteLength":960},{"buffer":0,"byteOffset":164904,"byteLength":960},{"buffer":0,"byteOffset":165864,"byteLength":960},{"buffer":0,"byteOffset":166824,"byteLength":240},{"buffer":0,"byteOffset":167064,"byteLength":720},{"buffer":0,"byteOffset":167784,"byteLength":960},{"buffer":0,"byteOffset":168744,"byteLength":960},{"buffer":0,"byteOffset":169704,"byteLength":960},{"buffer":0,"byteOffset":170664,"byteLength":960},{"buffer":0,"byteOffset":171624,"byteLength":960},{"buffer":0,"byteOffset":172584,"byteLength":960},{"buffer":0,"byteOffset":173544,"byteLength":960},{"buffer":0,"byteOffset":174504,"byteLength":960},{"buffer":0,"byteOffset":175464,"byteLength":960},{"buffer":0,"byteOffset":176424,"byteLength":960},{"buffer":0,"byteOffset":177384,"byteLength":960},{"buffer":0,"byteOffset":178344,"byteLength":960},{"buffer":0,"byteOffset":179304,"byteLength":960},{"buffer":0,"byteOffset":180264,"byteLength":960}],"buffers":[{"uri":"data:application/octet-stream;base64,","byteLength":181224}]}