{"asset":{"version":"2.0","generator":"bb procedural animation"},"scene":0,"scenes":[{"nodes":[0,26]}],"nodes":[{"name":"Center of Mass","translation":[-0.00346827507,2.33973646,-0.961105645],"rotation":[-0.707106829,0,0,0.707106829],"scale":[1,1,1],"children":[1,2,3]},{"name":"Body1","translation":[0,0,-0.847827315],"rotation":[0.707106829,8.42937027e-08,8.42937027e-08,0.707106829],"scale":[1,1,1],"children":[4,5]},{"name":"UpperLeg.L","translation":[-0.367978424,0,-0.782905579],"rotation":[-0.479648381,-0.486110508,0.512896001,0.520165265],"scale":[0.99999994,0.999999881,1],"children":[6]},{"name":"UpperLeg.R","translation":[0.367978394,-5.96046448e-08,-0.782905817],"rotation":[-0.479648381,0.486110508,-0.512896001,0.520165265],"scale":[0.99999994,0.999999881,1],"children":[7]},{"name":"Tail1","translation":[-9.28994268e-08,0.323806405,0.390153229],"rotation":[0.944899917,-1.12796506e-14,2.25281667e-07,0.327359438],"scale":[1,0.99999994,0.999999881],"children":[8]},{"name":"Body2","translation":[0,0.440860391,0],"rotation":[0,0,0,1],"scale":[1,1,1],"children":[9]},{"name":"LowerLeg.L","translation":[5.96046448e-08,0.787231565,0],"rotation":[0.000663232291,-0.00059863081,0.015327964,0.999882162],"scale":[1.00000012,1.00000012,1.00000024],"children":[10]},{"name":"LowerLeg.R","translation":[-1.78813934e-07,0.787231565,1.1920929e-07],"rotation":[0.000663232291,0.00059863081,-0.015327964,0.999882162],"scale":[1.00000012,1.00000012,1.00000024],"children":[11]},{"name":"Tail2","translation":[2.32830644e-10,0.63900125,-1.1920929e-07],"rotation":[-0.0591149032,1.19000866e-07,-2.11411422e-08,0.998251259],"scale":[1,1.00000012,1],"children":[12]},{"name":"Body3","translation":[0,0.577807188,0],"rotation":[0,0,0,1],"scale":[1,1,1],"children":[13,14,15,16,17]},{"name":"Foot.L","translation":[-5.96046448e-08,0.640294254,-8.94069672e-08],"rotation":[0.0247680191,0.0237566456,0.712628543,-0.700701594],"scale":[0.99999994,0.999999762,0.999999702]},{"name":"Foot.R","translation":[5.96046448e-08,0.640294015,-8.94069672e-08],"rotation":[-0.0247680191,0.0237566456,0.712628543,0.700701594],"scale":[0.99999994,0.999999762,0.999999702]},{"name":"Tail3","translation":[4.65661287e-10,0.599112391,1.78813934e-07],"rotation":[-0.0849445239,-4.99184129e-14,-4.05047125e-08,0.996385694],"scale":[1,0.99999994,1],"children":[18]},{"name":"Head","translation":[0,0.865880013,0],"rotation":[-0.224599168,-1.16163655e-07,-2.67743054e-08,0.974451244],"scale":[1,1,0.99999994]},{"name":"Chest.L","translation":[-0.337872654,0.24049902,0.202579141],"rotation":[-0.707106829,-9.57454489e-08,-9.57454489e-08,0.707106829],"scale":[1,1,1]},{"name":"Chest.R","translation":[0.337872475,0.240498781,0.2025792],"rotation":[-0.707106829,-9.57454489e-08,-9.5745456e-08,0.707106829],"scale":[1,0.999999881,0.999999881]},{"name":"Shoulder.L","translation":[-8.84756446e-08,0.865880013,-5.96046448e-08],"rotation":[0.0541525818,0.0092174504,0.836106241,0.545810282],"scale":[1.00000012,1.00000012,1],"children":[19]},{"name":"Shoulder.R","translation":[6.14672899e-08,0.865880013,1.1920929e-07],"rotation":[-0.0541527756,0.00921757054,0.836106181,-0.545810401],"scale":[0.999999762,0.999999881,0.99999994],"children":[20]},{"name":"Tail4","translation":[4.65661287e-10,0.619200826,-2.38418579e-07],"rotation":[-0.099313736,-5.13240006e-15,-4.73564832e-08,0.995056272],"scale":[1,0.999999881,0.99999994],"children":[21]},{"name":"UpperArm.L","translation":[2.38418579e-07,0.672605336,0],"rotation":[-0.043372456,0.0337089002,-0.162203342,0.985227227],"scale":[1.00000012,1.00000012,0.999999821],"children":[22]},{"name":"UpperArm.R","translation":[2.38418579e-07,0.672605753,-2.38418579e-07],"rotation":[-0.0433724336,-0.0337089002,0.162203312,0.985227287],"scale":[1.00000012,1.00000012,1.00000024],"children":[23]},{"name":"Tail5","translation":[0,0.547650814,3.57627869e-07],"rotation":[-0.041304253,-1.19107504e-07,-1.47715298e-08,0.99914664],"scale":[1,1.00000012,1]},{"name":"LowerArm.L","translation":[-2.38418579e-07,0.742367148,1.1920929e-07],"rotation":[0.0289473422,-0.000401772762,-0.0537969843,0.998132169],"scale":[0.999999821,0.999999821,1],"children":[24]},{"name":"LowerArm.R","translation":[0,0.742367625,0],"rotation":[0.0289473161,0.000401768513,0.053797029,0.998132169],"scale":[1.00000012,1.00000012,1],"children":[25]},{"name":"Hand.L","translation":[-2.38418579e-07,0.67014873,0],"rotation":[-0.02893712,-0.000868626114,0.0099560013,0.999531269],"scale":[1,1,0.99999994]},{"name":"Hand.R","translation":[2.38418579e-07,0.670149446,5.96046448e-08],"rotation":[-0.0289371051,0.000868627045,-0.0099560013,0.999531269],"scale":[0.99999994,1.00000012,0.999999821]},{"name":"mesh","mesh":0,"skin":0}],"meshes":[{"primitives":[{"attributes":{"POSITION":0,"NORMAL":1,"TEXCOORD_0":2,"JOINTS_0":3,"WEIGHTS_0":4},"indices":5,"mode":4}]}],"skins":[{"inverseBindMatrices":6,"skeleton":0,"joints":[0,1,2,3,4,5,6,7,8,9,10,11,12,13,14,15,16,17,18,19,20,21,22,23,24,25]}],"animations":[{"name":"step","samplers":[{"input":7,"output":8,"interpolation":"LINEAR"},{"input":7,"output":9,"interpolation":"LINEAR"},{"input":7,"output":10,"interpolation":"LINEAR"},{"input":7,"output":11,"interpolation":"LINEAR"},{"input":7,"output":12,"interpolation":"LINEAR"},{"input":7,"output":13,"interpolation":"LINEAR"},{"input":7,"output":14,"interpolation":"LINEAR"},{"input":7,"output":15,"interpolation":"LINEAR"},{"input":7,"output":16,"interpolation":"LINEAR"},{"input":7,"output":17,"interpolation":"LINEAR"},{"input":7,"output":18,"interpolation":"LINEAR"},{"input":7,"output":19,"interpolation":"LINEAR"},{"input":7,"output":20,"interpolation":"LINEAR"},{"input":7,"output":21,"interpolation":"LINEAR"},{"input":7,"output":22,"interpolation":"LINEAR"},{"input":7,"output":23,"interpolation":"LINEAR"},{"input":7,"output":24,"interpolation":"LINEAR"},{"input":7,"output":25,"interpolation":"LINEAR"},{"input":7,"output":26,"interpolation":"LINEAR"}],"channels":[{"sampler":0,"target":{"node":0,"path":"translation"}},{"sampler":1,"target":{"node":1,"path":"rotation"}},{"sampler":2,"target":{"node":2,"path":"rotation"}},{"sampler":3,"target":{"node":3,"path":"rotation"}},{"sampler":4,"target":{"node":5,"path":"rotation"}},{"sampler":5,"target":{"node":6,"path":"rotation"}},{"sampler":6,"target":{"node":7,"path":"rotation"}},{"sampler":7,"target":{"node":9,"path":"rotation"}},{"sampler":8,"target":{"node":10,"path":"rotation"}},{"sampler":9,"target":{"node":11,"path":"rotation"}},{"sampler":10,"target":{"node":13,"path":"rotation"}},{"sampler":11,"target":{"node":16,"path":"rotation"}},{"sampler":12,"target":{"node":17,"path":"rotation"}},{"sampler":13,"target":{"node":19,"path":"rotation"}},{"sampler":14,"target":{"node":20,"path":"rotation"}},{"sampler":15,"target":{"node":22,"path":"rotation"}},{"sampler":16,"target":{"node":23,"path":"rotation"}},{"sampler":17,"target":{"node":24,"path":"rotation"}},{"sampler":18,"target":{"node":25,"path":"rotation"}}]},{"name":"chase","samplers":[{"input":27,"output":28,"interpolation":"LINEAR"},{"input":27,"output":29,"interpolation":"LINEAR"},{"input":27,"output":30,"interpolation":"LINEAR"},{"input":27,"output":31,"interpolation":"LINEAR"},{"input":27,"output":32,"interpolation":"LINEAR"},{"input":27,"output":33,"interpolation":"LINEAR"},{"input":27,"output":34,"interpolation":"LINEAR"},{"input":27,"output":35,"interpolation":"LINEAR"},{"input":27,"output":36,"interpolation":"LINEAR"},{"input":27,"output":37,"interpolation":"LINEAR"},{"input":27,"output":38,"interpolation":"LINEAR"},{"input":27,"output":39,"interpolation":"LINEAR"},{"input":27,"output":40,"interpolation":"LINEAR"},{"input":27,"output":41,"interpolation":"LINEAR"},{"input":27,"output":42,"interpolation":"LINEAR"},{"input":27,"output":43,"interpolation":"LINEAR"},{"input":27,"output":44,"interpolation":"LINEAR"},{"input":27,"output":45,"interpolation":"LINEAR"},{"input":27,"output":46,"interpolation":"LINEAR"}],"channels":[{"sampler":0,"target":{"node":0,"path":"translation"}},{"sampler":1,"target":{"node":1,"path":"rotation"}},{"sampler":2,"target":{"node":2,"path":"rotation"}},{"sampler":3,"target":{"node":3,"path":"rotation"}},{"sampler":4,"target":{"node":5,"path":"rotation"}},{"sampler":5,"target":{"node":6,"path":"rotation"}},{"sampler":6,"target":{"node":7,"path":"rotation"}},{"sampler":7,"target":{"node":9,"path":"rotation"}},{"sampler":8,"target":{"node":10,"path":"rotation"}},{"sampler":9,"target":{"node":11,"path":"rotation"}},{"sampler":10,"target":{"node":13,"path":"rotation"}},{"sampler":11,"target":{"node":16,"path":"rotation"}},{"sampler":12,"target":{"node":17,"path":"rotation"}},{"sampler":13,"target":{"node":19,"path":"rotation"}},{"sampler":14,"target":{"node":20,"path":"rotation"}},{"sampler":15,"target":{"node":22,"path":"rotation"}},{"sampler":16,"target":{"node":23,"path":"rotation"}},{"sampler":17,"target":{"node":24,"path":"rotation"}},{"sampler":18,"target":{"node":25,"path":"rotation"}}]},{"name":"Idle","samplers":[{"input":47,"output":48,"interpolation":"LINEAR"},{"input":47,"output":49,"interpolation":"LINEAR"},{"input":47,"output":50,"interpolation":"LINEAR"},{"input":47,"output":51,"interpolation":"LINEAR"},{"input":47,"output":52,"interpolation":"LINEAR"},{"input":47,"output":53,"interpolation":"LINEAR"},{"input":47,"output":54,"interpolation":"LINEAR"},{"input":47,"output":55,"interpolation":"LINEAR"},{"input":47,"output":56,"interpolation":"LINEAR"},{"input":47,"output":57,"interpolation":"LINEAR"},{"input":47,"output":58,"interpolation":"LINEAR"}],"channels":[{"sampler":0,"target":{"node":0,"path":"translation"}},{"sampler":1,"target":{"node":2,"path":"rotation"}},{"sampler":2,"target":{"node":3,"path":"rotation"}},{"sampler":3,"target":{"node":6,"path":"rotation"}},{"sampler":4,"target":{"node":7,"path":"rotation"}},{"sampler":5,"target":{"node":10,"path":"rotation"}},{"sampler":6,"target":{"node":11,"path":"rotation"}},{"sampler":7,"target":{"node":19,"path":"rotation"}},{"sampler":8,"target":{"node":20,"path":"rotation"}},{"sampler":9,"target":{"node":22,"path":"rotation"}},{"sampler":10,"target":{"node":23,"path":"rotation"}}]}],"accessors":[{"bufferView":0,"componentType":5126,"count":10812,"type":"VEC3","min":[-2.54756474,0,-1.69107509],"max":[2.54756474,4.22146511,1.69107509]},{"bufferView":1,"componentType":5126,"count":10812,"type":"VEC3"},{"bufferView":2,"componentType":5126,"count":10812,"type":"VEC2"},{"bufferView":3,"componentType":5123,"count":10812,"type":"VEC4"},{"bufferView":4,"componentType":5126,"count":10812,"type":"VEC4"},{"bufferView":5,"componentType":5125,"count":10812,"type":"SCALAR"},{"bufferView":6,"componentType":5126,"count":26,"type":"MAT4"},{"bufferView":7,"componentType":5126,"count":60,"type":"SCALAR","min":[0],"max":[0.830518007]},{"bufferView":8,"componentType":5126,"count":60,"type":"VEC3"},{"bufferView":9,"componentType":5126,"count":60,"type":"VEC4"},{"bufferView":10,"componentType":5126,"count":60,"type":"VEC4"},{"bufferView":11,"componentType":5126,"count":60,"type":"VEC4"},{"bufferView":12,"componentType":5126,"count":60,"type":"VEC4"},{"bufferView":13,"componentType":5126,"count":60,"type":"VEC4"},{"bufferView":14,"componentType":5126,"count":60,"type":"VEC4"},{"bufferView":15,"componentType":5126,"count":60,"type":"VEC4"},{"bufferView":16,"componentType":5126,"count":60,"type":"VEC4"},{"bufferView":17,"componentType":5126,"count":60,"type":"VEC4"},{"bufferView":18,"componentType":5126,"count":60,"type":"VEC4"},{"bufferView":19,"componentType":5126,"count":60,"type":"VEC4"},{"bufferView":20,"componentType":5126,"count":60,"type":"VEC4"},{"bufferView":21,"componentType":5126,"count":60,"type":"VEC4"},{"bufferView":22,"componentType":5126,"count":60,"type":"VEC4"},{"bufferView":23,"componentType":5126,"count":60,"type":"VEC4"},{"bufferView":24,"componentType":5126,"count":60,"type":"VEC4"},{"bufferView":25,"componentType":5126,"count":60,"type":"VEC4"},{"bufferView":26,"componentType":5126,"count":60,"type":"VEC4"},{"bufferView":27,"componentType":5126,"count":60,"type":"SCALAR","min":[0],"max":[0.538517714]},{"bufferView":28,"componentType":5126,"count":60,"type":"VEC3"},{"bufferView":29,"componentType":5126,"count":60,"type":"VEC4"},{"bufferView":30,"componentType":5126,"count":60,"type":"VEC4"},{"bufferView":31,"componentType":5126,"count":60,"type":"VEC4"},{"bufferView":32,"componentType":5126,"count":60,"type":"VEC4"},{"bufferView":33,"componentType":5126,"count":60,"type":"VEC4"},{"bufferView":34,"componentType":5126,"count":60,"type":"VEC4"},{"bufferView":35,"componentType":5126,"count":60,"type":"VEC4"},{"bufferView":36,"componentType":5126,"count":60,"type":"VEC4"},{"bufferView":37,"componentType":5126,"count":60,"type":"VEC4"},{"bufferView":38,"componentType":5126,"count":60,"type":"VEC4"},{"bufferView":39,"componentType":5126,"count":60,"type":"VEC4"},{"bufferView":40,"componentType":5126,"count":60,"type":"VEC4"},{"bufferView":41,"componentType":5126,"count":60,"type":"VEC4"},{"bufferView":42,"componentType":5126,"count":60,"type":"VEC4"},{"bufferView":43,"componentType":5126,"count":60,"type":"VEC4"},{"bufferView":44,"componentType":5126,"count":60,"type":"VEC4"},{"bufferView":45,"componentType":5126,"count":60,"type":"VEC4"},{"bufferView":46,"componentType":5126,"count":60,"type":"VEC4"},{"bufferView":47,"componentType":5126,"count":60,"type":"SCALAR","min":[0],"max":[1]},{"bufferView":48,"componentType":5126,"count":60,"type":"VEC3"},{"bufferView":49,"componentType":5126,"count":60,"type":"VEC4"},{"bufferView":50,"componentType":5126,"count":60,"type":"VEC4"},{"bufferView":51,"componentType":5126,"count":60,"type":"VEC4"},{"bufferView":52,"componentType":5126,"count":60,"type":"VEC4"},{"bufferView":53,"componentType":5126,"count":60,"type":"VEC4"},{"bufferView":54,"componentType":5126,"count":60,"type":"VEC4"},{"bufferView":55,"componentType":5126,"count":60,"type":"VEC4"},{"bufferView":56,"componentType":5126,"count":60,"type":"VEC4"},{"bufferView":57,"componentType":5126,"count":60,"type":"VEC4"},{"bufferView":58,"componentType":5126,"count":60,"type":"VEC4"}],"bufferViews":[{"buffer":0,"byteOffset":0,"byteLength":129744,"target":34962},{"buffer":0,"byteOffset":129744,"byteLength":129744,"target":34962},{"buffer":0,"byteOffset":259488,"byteLength":86496,"target":34962},{"buffer":0,"byteOffset":345984,"byteLength":86496,"target":34962},{"buffer":0,"byteOffset":432480,"byteLength":172992,"target":34962},{"buffer":0,"byteOffset":605472,"byteLength":43248,"target":34963},{"buffer":0,"byteOffset":648720,"byteLength":1664},{"buffer":0,"byteOffset":650384,"byteLength":240},{"buffer":0,"byteOffset":650624,"byteLength":720},{"buffer":0,"byteOffset":651344,"byteLength":960},{"buffer":0,"byteOffset":652304,"byteLength":960},{"buffer":0,"byteOffset":653264,"byteLength":960},{"buffer":0,"byteOffset":654224,"byteLength":960},{"buffer":0,"byteOffset":655184,"byteLength":960},{"buffer":0,"byteOffset":656144,"byteLength":960},{"buffer":0,"byteOffset":657104,"byteLength":960},{"buffer":0,"byteOffset":658064,"byteLength":960},{"buffer":0,"byteOffset":659024,"byteLength":960},{"buffer":0,"byteOffset":659984,"byteLength":960},{"buffer":0,"byteOffset":660944,"byteLength":960},{"buffer":0,"byteOffset":661904,"byteLength":960},{"buffer":0,"byteOffset":662864,"byteLength":960},{"buffer":0,"byteOffset":663824,"byteLength":960},{"buffer":0,"byteOffset":664784,"byteLength":960},{"buffer":0,"byteOffset":665744,"byteLength":960},{"buffer":0,"byteOffset":666704,"byteLength":960},{"buffer":0,"byteOffset":667664,"byteLength":960},{"buffer":0,"byteOffset":668624,"byteLength":240},{"buffer":0,"byteOffset":668864,"byteLength":720},{"buffer":0,"byteOffset":669584,"byteLength":960},{"buffer":0,"byteOffset":670544,"byteLength":960},{"buffer":0,"byteOffset":671504,"byteLength":960},{"buffer":0,"byteOffset":672464,"byteLength":960},{"buffer":0,"byteOffset":673424,"byteLength":960},{"buffer":0,"byteOffset":674384,"byteLength":960},{"buffer":0,"byteOffset":675344,"byteLength":960},{"buffer":0,"byteOffset":676304,"byteLength":960},{"buffer":0,"byteOffset":677264,"byteLength":960},{"buffer":0,"byteOffset":678224,"byteLength":960},{"buffer":0,"byteOffset":679184,"byteLength":960},{"buffer":0,"byteOffset":680144,"byteLength":960},{"buffer":0,"byteOffset":681104,"byteLength":960},{"buffer":0,"byteOffset":682064,"byteLength":960},{"buffer":0,"byteOffset":683024,"byteLength":960},{"buffer":0,"byteOffset":683984,"byteLength":960},{"buffer":0,"byteOffset":684944,"byteLength":960},{"buffer":0,"byteOffset":685904,"byteLength":960},{"buffer":0,"byteOffset":686864,"byteLength":240},{"buffer":0,"byteOffset":687104,"byteLength":720},{"buffer":0,"byteOffset":687824,"byteLength":960},{"buffer":0,"byteOffset":688784,"byteLength":960},{"buffer":0,"byteOffset":689744,"byteLength":960},{"buffer":0,"byteOffset":690704,"byteLength":960},{"buffer":0,"byteOffset":691664,"byteLength":960},{"buffer":0,"byteOffset":692624,"byteLength":960},{"buffer":0,"byteOffset":693584,"byteLength":960},{"buffer":0,"byteOffset":694544,"byteLength":960},{"buffer":0,"byteOffset":695504,"byteLength":960},{"buffer":0,"byteOffset":696464,"byteLength":960}],"buffers":[{"uri":"data:application/octet-stream;base64,","byteLength":697424}]}